<?xml version="1.0" standalone="no"?>
<!DOCTYPE svg PUBLIC "-//W3C//DTD SVG 20010904//EN"
 "http://www.w3.org/TR/2001/REC-SVG-20010904/DTD/svg10.dtd">
<svg version="1.0" xmlns="http://www.w3.org/2000/svg"
 width="196.000000pt" height="196.000000pt" viewBox="0 0 196.000000 196.000000"
 preserveAspectRatio="xMidYMid meet">
<metadata>
Created by potrace 1.14, written by Peter Selinger 2001-2017
</metadata>
<g transform="translate(0.000000,196.000000) scale(0.100000,-0.100000)"
fill="#000000" stroke="none">
<path d="M700 1940 c-21 -21 -28 -84 -10 -95 6 -3 10 1 10 10 0 8 6 18 13 21
17 6 165 -48 166 -61 0 -6 -22 -9 -55 -7 -56 3 -84 -8 -84 -34 0 -11 9 -13 40
-8 79 13 139 -40 126 -111 -7 -36 -28 -59 -70 -75 -40 -15 -84 1 -127 46 -78
82 -172 109 -246 71 -55 -29 -93 -107 -109 -222 -9 -71 -49 -239 -73 -309 -12
-33 -19 -61 -17 -63 2 -2 33 29 70 68 71 76 76 74 50 -19 -36 -130 -59 -190
-97 -250 -22 -35 -37 -65 -35 -67 3 -3 29 13 59 35 29 23 55 37 57 32 5 -16
-130 -276 -174 -334 -24 -32 -39 -58 -33 -58 38 0 141 85 192 160 22 32 33 40
35 28 3 -17 -36 -103 -69 -150 -27 -37 -24 -42 12 -21 33 19 149 140 149 154
0 5 4 9 8 9 15 0 34 -80 27 -111 -6 -27 -14 -33 -42 -30 -6 1 -15 -3 -18 -9
-12 -20 4 -54 44 -95 46 -46 47 -51 21 -85 -19 -25 -19 -25 -50 -7 -43 26 -86
25 -115 -3 -33 -31 -32 -55 5 -72 17 -7 30 -16 30 -20 0 -11 -6 -10 -48 8 -48
20 -136 20 -167 0 -43 -29 -42 -115 3 -185 20 -29 88 -73 109 -69 12 2 7 13
-20 45 -34 42 -41 81 -13 84 41 4 83 -8 168 -47 105 -49 195 -71 250 -60 53
10 64 27 51 87 -11 58 -17 57 84 15 110 -46 249 -45 356 3 85 38 85 38 73 -19
-12 -62 1 -80 68 -87 59 -7 115 8 237 62 106 48 172 58 183 29 8 -21 10 -17
-29 -64 -39 -46 -39 -56 -2 -46 59 14 112 87 123 168 7 49 -12 80 -61 98 -32
12 -103 5 -154 -16 -51 -21 -61 -16 -13 8 48 23 53 44 20 75 -37 33 -57 35
-105 12 l-43 -21 -20 24 c-26 31 -25 37 21 83 40 41 56 75 44 95 -4 6 -15 8
-25 5 -27 -9 -41 40 -27 98 6 26 14 47 19 47 4 0 8 -4 8 -9 0 -16 101 -121
146 -152 l42 -29 -50 95 c-51 97 -62 152 -16 80 44 -69 159 -165 197 -165 6 0
-7 24 -30 53 -39 51 -185 334 -177 343 3 2 31 -16 63 -41 31 -25 60 -45 62
-45 3 0 -2 11 -11 25 -48 74 -88 162 -115 259 -17 60 -31 115 -31 122 0 8 31
-19 70 -59 66 -68 69 -70 59 -37 -32 106 -53 190 -78 317 -16 79 -37 157 -47
174 -46 77 -143 118 -213 89 -16 -6 -50 -38 -75 -70 -54 -70 -99 -87 -144 -53
-42 31 -41 47 2 39 34 -7 76 6 76 22 0 4 -13 13 -30 19 -16 6 -30 17 -30 25 0
7 14 19 30 25 30 11 41 33 17 33 -7 0 -31 19 -53 43 l-39 44 29 14 c46 22 42
36 -12 43 -27 3 -75 20 -107 36 -64 33 -145 42 -145 16 0 -8 15 -17 35 -20 40
-8 47 -32 13 -45 -31 -11 -44 -5 -58 30 -20 47 -123 66 -160 29z m36 -1548
c17 -23 7 -40 -27 -47 -35 -8 -44 -34 -31 -93 12 -51 -2 -56 -20 -6 -9 26 -23
40 -55 54 -47 21 -48 22 -31 53 31 59 132 83 164 39z m534 7 c0 -5 5 -7 12 -3
7 4 8 3 4 -4 -4 -6 -13 -9 -21 -6 -9 4 -13 -2 -11 -19 2 -18 -1 -24 -10 -20
-8 3 -11 10 -7 17 4 6 -1 5 -10 -3 -9 -7 -17 -11 -17 -8 0 3 -3 12 -6 21 -3 9
-1 16 6 16 6 0 8 -6 4 -12 -4 -7 3 -3 15 10 23 24 41 29 41 11z m75 -59 c4 -6
1 -9 -7 -8 -8 2 -13 -6 -12 -18 1 -16 -3 -20 -17 -17 -24 7 -24 8 3 33 25 23
25 23 33 10z m165 -114 c0 -2 -7 -7 -16 -10 -8 -3 -12 -2 -9 4 6 10 25 14 25
6z"/>
</g>
</svg>
